<svg xmlns="http://www.w3.org/2000/svg" version="1.1" id="Layer_1" x="0" y="0" viewBox="0 0 100 100" xml:space="preserve">
  <circle cx="50" cy="50" r="40" fill="#AD9071"/>
  <path d="M71.791 34.575a3.4 3.4 0 0 0-3.396-3.396H53.396v-2.736a.943.943 0 0 0-.943-.943h-4.906a.943.943 0 0 0-.943.943v2.736H31.605a3.4 3.4 0 0 0-3.396 3.396 3.4 3.4 0 0 0 3.396 3.396h2.93l-4.426 11.794.003.001a.93.93 0 0 0-.063.33v.92c0 3.186 2.216 5.858 5.185 6.574l.013.005.023.004c.24.056.483.101.732.131l.046.007c.253.029.509.047.769.047a6.776 6.776 0 0 0 6.768-6.768v-.92a.927.927 0 0 0-.063-.33l.002-.001-4.427-11.794h7.506v24.673c-4.905.013-8.891 4.006-8.891 8.913 0 .521.422.943.943.943h22.689a.943.943 0 0 0 .943-.943c0-.307-.016-.61-.046-.91-.009-.093-.03-.182-.042-.274-.027-.204-.052-.409-.093-.609-.029-.139-.071-.274-.106-.411-.038-.148-.069-.298-.114-.442-.051-.165-.117-.324-.177-.484-.042-.111-.076-.225-.122-.333-.078-.183-.169-.359-.258-.536-.04-.08-.074-.163-.117-.242a8.934 8.934 0 0 0-.346-.571c-.034-.054-.064-.111-.099-.163a9.33 9.33 0 0 0-.463-.62l-.049-.065a8.93 8.93 0 0 0-.574-.632 8.889 8.889 0 0 0-6.283-2.621h-.001V37.971h7.506l-4.427 11.794.002.001a.924.924 0 0 0-.062.33v.92a6.776 6.776 0 0 0 6.768 6.768l.022-.001.018.001a6.776 6.776 0 0 0 6.768-6.768v-.92a.93.93 0 0 0-.186-.557l-4.342-11.568h2.93a3.4 3.4 0 0 0 3.397-3.396zm-30.51 14.578h-8.927l4.197-11.182h.534l4.196 11.182zm23.987 0H58.72l4.197-11.182h.534l4.197 11.182h-2.38z" fill="#fff"/>
</svg>