<svg width="161" height="56" viewBox="0 0 161 56" fill="none" xmlns="http://www.w3.org/2000/svg">
<path d="M51.245 36V35.265L52.19 34.985C52.68 34.845 53.0533 34.635 53.31 34.355C53.59 34.075 53.8117 33.69 53.975 33.2L61.045 12.76H63.95L70.985 33.34C71.1717 33.8533 71.3817 34.25 71.615 34.53C71.8483 34.7867 72.2217 34.9967 72.735 35.16L73.26 35.3V36H64.37V35.3L64.965 35.125C65.4783 34.9617 65.7817 34.705 65.875 34.355C65.9917 34.005 65.9683 33.5733 65.805 33.06L64.335 28.545H56.6L55.095 32.99C54.9317 33.5033 54.885 33.9233 54.955 34.25C55.025 34.5767 55.3167 34.8333 55.83 35.02L56.6 35.265V36H51.245ZM56.95 27.53H64.02L60.59 16.995L56.95 27.53ZM80.1145 36.105L73.9545 21.3C73.6979 20.6467 73.2429 20.2267 72.5895 20.04L71.8545 19.865V19.2H80.7095V19.865L79.7995 20.075C79.0529 20.2617 78.8312 20.74 79.1345 21.51L82.8095 31.275L86.2395 21.58C86.3562 21.1833 86.3795 20.8683 86.3095 20.635C86.2629 20.3783 86.0412 20.2033 85.6445 20.11L84.6295 19.865V19.2H89.9495V19.865L88.7945 20.145C88.1179 20.3083 87.6629 20.7283 87.4295 21.405L82.1445 36.105H80.1145ZM97.1357 36.49C96.2257 36.49 95.3974 36.3267 94.6507 36C93.9041 35.65 93.3091 35.09 92.8657 34.32C92.4457 33.5267 92.2474 32.4883 92.2707 31.205L92.3757 22.42C92.3757 21.9067 92.2941 21.5333 92.1307 21.3C91.9674 21.0667 91.6757 20.9033 91.2557 20.81L90.8357 20.67V20.04L96.8207 18.885L97.2057 19.27L97.0307 24.205V32.15C97.0307 32.9433 97.2407 33.5267 97.6607 33.9C98.1041 34.25 98.6524 34.425 99.3057 34.425C99.9824 34.425 100.589 34.3317 101.126 34.145C101.686 33.935 102.257 33.6317 102.841 33.235L102.946 22.455C102.946 21.9183 102.864 21.545 102.701 21.335C102.561 21.125 102.281 20.9617 101.861 20.845L101.476 20.74V20.11L107.321 18.885L107.706 19.27L107.601 24.205V33.375C107.601 33.865 107.659 34.2617 107.776 34.565C107.916 34.845 108.207 35.055 108.651 35.195L109.106 35.335V36L103.191 36.35L102.876 34.145C102.082 34.8217 101.219 35.3817 100.286 35.825C99.3524 36.2683 98.3024 36.49 97.1357 36.49ZM110.594 36V35.335L111.119 35.16C111.912 34.9267 112.309 34.355 112.309 33.445V15.315C112.309 14.8483 112.216 14.4983 112.029 14.265C111.842 14.0083 111.516 13.8217 111.049 13.705L110.594 13.565V12.9L116.719 11.43L117.174 11.745L117.034 16.68V33.445C117.034 34.3783 117.431 34.9617 118.224 35.195L118.714 35.335V36H110.594ZM123.404 36L117.069 27.25L123.264 21.51C123.567 21.2533 123.742 20.9733 123.789 20.67C123.836 20.3433 123.637 20.1217 123.194 20.005L122.634 19.865V19.2H128.094V19.865L127.079 20.11C126.566 20.25 126.146 20.4483 125.819 20.705C125.492 20.9383 125.107 21.2533 124.664 21.65L120.814 25.255L126.764 33.41C127.137 33.9 127.476 34.285 127.779 34.565C128.082 34.8217 128.491 35.0433 129.004 35.23L129.354 35.335V36H123.404ZM135.56 36.49C134.23 36.49 133.098 36.1167 132.165 35.37C131.255 34.6 130.8 33.5033 130.8 32.08C130.8 30.96 131.337 29.9333 132.41 29C133.507 28.0433 135.222 27.3433 137.555 26.9C137.952 26.8067 138.407 26.725 138.92 26.655C139.457 26.5617 139.982 26.4683 140.495 26.375V23.89C140.495 22.3033 140.297 21.2067 139.9 20.6C139.503 19.9933 138.873 19.69 138.01 19.69H137.905C137.368 19.69 136.937 19.865 136.61 20.215C136.307 20.5417 136.108 21.09 136.015 21.86L135.91 22.315C135.84 23.2483 135.595 23.9367 135.175 24.38C134.755 24.8 134.23 25.01 133.6 25.01C133.017 25.01 132.527 24.835 132.13 24.485C131.757 24.1117 131.57 23.6333 131.57 23.05C131.57 22.0933 131.897 21.2883 132.55 20.635C133.203 19.9817 134.067 19.4917 135.14 19.165C136.237 18.8383 137.415 18.675 138.675 18.675C140.752 18.675 142.338 19.1767 143.435 20.18C144.532 21.1833 145.08 22.8167 145.08 25.08V32.885C145.08 33.8883 145.558 34.39 146.515 34.39H147.32L147.67 34.775C147.25 35.3117 146.783 35.72 146.27 36C145.757 36.3033 145.057 36.455 144.17 36.455C143.167 36.455 142.362 36.2217 141.755 35.755C141.172 35.265 140.787 34.6233 140.6 33.83C139.853 34.6233 139.118 35.265 138.395 35.755C137.672 36.245 136.727 36.49 135.56 36.49ZM137.59 34.25C138.057 34.25 138.5 34.145 138.92 33.935C139.34 33.725 139.865 33.375 140.495 32.885V27.285C139.888 27.3783 139.27 27.495 138.64 27.635C137.637 27.8683 136.82 28.3 136.19 28.93C135.583 29.56 135.28 30.4117 135.28 31.485C135.28 32.4183 135.49 33.1183 135.91 33.585C136.353 34.0283 136.913 34.25 137.59 34.25ZM155.044 36.49C153.597 36.49 152.454 36.14 151.614 35.44C150.797 34.7167 150.389 33.55 150.389 31.94C150.389 31.38 150.389 30.855 150.389 30.365C150.412 29.8517 150.424 29.2567 150.424 28.58V20.285H147.939V19.515L148.884 19.375C149.56 19.2583 150.132 19.0483 150.599 18.745C151.089 18.4417 151.532 18.0217 151.929 17.485L154.204 14.335H155.254L155.149 19.2H159.139V20.285H155.114V32.22C155.114 33.06 155.289 33.69 155.639 34.11C156.012 34.53 156.467 34.74 157.004 34.74C157.47 34.74 157.89 34.635 158.264 34.425C158.637 34.1917 159.01 33.8883 159.384 33.515L159.839 34.04C159.395 34.81 158.777 35.4167 157.984 35.86C157.19 36.28 156.21 36.49 155.044 36.49Z" fill="white"/>
<g clip-path="url(#clip0_12_11)">
<path d="M20.5277 42.3533V24.8802H23.5547V41.719C22.5379 41.9119 21.5288 42.1229 20.5277 42.3533ZM12.6691 44.5878V20.3266C12.6691 16.9286 10.6988 13.9914 7.83857 12.5935V20.1831C7.84047 20.2311 7.84142 20.2787 7.84142 20.3266L7.8362 46.4227C5.74566 47.297 3.69265 48.2643 1.67671 49.3229C1.67671 49.3229 2.0321 51.3255 2.74383 55.3303C21.8951 46.0911 37.6478 41.2159 50 40.7027C45.0231 40.2214 40.1897 40.0951 35.4993 40.3212C35.7473 40.2761 35.9958 40.2333 36.2447 40.1901L36.2428 31.1438V30.5589L36.2409 20.3266C36.2409 20.2848 36.2419 20.2425 36.2428 20.2012V12.594C33.3831 13.9918 31.4132 16.929 31.4132 20.3266V40.6115C30.3974 40.707 29.3878 40.8201 28.3862 40.9498V24.8802V20.0487H23.5547H20.5277H15.6961V43.6219C14.6789 43.9246 13.6698 44.2472 12.6691 44.5878ZM0 4H44.0804V8.83105H0V4ZM15.3332 17.0217H28.7487L28.8499 16.7095C29.2965 15.3336 29.9964 14.0484 30.9096 12.9261L31.5087 12.1897H12.5727L13.1723 12.9261C14.0855 14.0479 14.7858 15.3331 15.232 16.7095L15.3332 17.0217Z" fill="#CDB091"/>
</g>
<defs>
<clipPath id="clip0_12_11">
<rect width="50" height="51.3303" fill="white" transform="translate(0 4)"/>
</clipPath>
</defs>
</svg>
